Coordinates
version=1
nRows=21
nColumns=33
inDegrees=yes

Units are S.I. units (second, meters, Newtons, ...)
Angles are in degrees.

endheader
time	ground_thorax_rot_x	ground_thorax_rot_y	ground_thorax_rot_z	ground_thorax_tx	ground_thorax_ty	ground_thorax_tz	clav_prot_r	clav_elev_r	scapula_abduction_r	scapula_elevation_r	scapula_upward_rot_r	scapula_winging_r	shoulder_elv_r	plane_of_elev_r	axial_rot_r	elbow_flexion_r	pro_sup_r	wrist_flex_r	wrist_dev_r	clav_prot_l	clav_elev_l	scapula_abduction_l	scapula_elevation_l	scapula_upward_rot_l	scapula_winging_l	shoulder_elv_l	plane_of_elev_l	axial_rot_l	elbow_flexion_l	pro_sup_l	wrist_flex_l	wrist_dev_l
      3.95000000	     40.48194251	      0.40816140	      0.21201641	    -66.90085274	    861.27132389	     -6.63204821	     -6.36648382	     39.50704048	     45.00000000	     45.00000000	     45.00000000	   1322.61679856	   -658.10857286	     18.54707563	   -179.99999979	   1809.13002107	   -121.77350277	     16.85457923	     14.17607157	      9.00277162	    -45.00000000	    -45.00000000	     45.00000000	    -17.53999874	     89.26015181	  -2614.96283309	    140.60635179	    156.14217359	   1089.92030178	   -350.30306228	     12.08348232	    -20.93972348
      3.96000000	     40.58821819	      0.55228617	      0.33307106	    -61.96626100	    856.93149543	     -6.35412337	     -6.52005841	     39.56357560	     45.00000000	     45.00000000	     45.00000000	   1322.46826928	   -658.81022526	     18.46321756	   -179.99999979	   1809.29015337	   -124.39903139	     16.35721850	     14.21365367	      8.88454154	    -45.00000000	    -45.00000000	     45.00000000	    -17.65664112	     88.59461586	  -2615.45748386	    140.54417815	    156.79609747	   1089.75379895	   -350.53677709	     12.30649027	    -20.76713358
      3.97000000	     40.68118017	      0.68453326	      0.32406546	    -57.09185641	    852.57365509	     -6.02408475	     -6.77832034	     39.59034885	     45.00000000	     45.00000000	     45.00000000	   1322.24450780	   -659.45743475	     18.41800698	   -179.99999979	   1809.43190819	   -126.78388540	     15.88008975	     14.20848086	      8.70554325	    -45.00000000	    -45.00000000	     45.00000000	    -17.45074875	     88.02805113	  -2616.00130438	    140.29913290	    157.48451249	   1089.53431495	   -350.46559388	     12.43609828	    -20.57643689
      3.98000000	     40.73032184	      0.99962768	      0.52290611	    -52.29980823	    848.22888948	     -5.64580081	     -6.53900452	     39.75010694	     45.00000000	     45.00000000	     45.00000000	   1322.20425927	   -659.87455119	     18.10718968	   -179.99999979	   1809.52434335	   -128.69603073	     15.34546051	     14.07729408	      8.72286424	    -45.00000000	    -45.00000000	     45.00000000	    -18.12734290	     87.18439995	  -2616.20671311	    140.22732829	    158.24536378	   1089.51498263	   -350.15714871	     12.52125511	    -20.45169708
      3.99000000	     40.78480915	      0.96929088	      0.41262951	    -47.60530795	    843.92037548	     -5.22477441	     -7.04874772	     39.78711757	     45.00000000	     45.00000000	     45.00000000	   1321.95324990	   -660.64975792	     18.06946351	   -179.99999979	   1809.65787344	   -130.58997746	     14.93850241	     14.00277128	      8.45841493	    -45.00000000	    -45.00000000	     45.00000000	    -17.67555519	     86.65755632	  -2616.84789139	    140.03651707	    158.98918275	   1089.20006957	   -349.51776176	     12.58616521	    -20.26569543
      4.00000000	     40.83721483	      1.24096340	      0.56607046	    -43.02282000	    839.67090906	     -4.76634123	     -6.87505432	     39.94288080	     45.00000000	     45.00000000	     45.00000000	   1321.95925009	   -660.96715443	     17.74747204	   -179.99999979	   1809.78787744	   -132.11311142	     14.46161932	     13.80623128	      8.36161349	    -45.00000000	    -45.00000000	     45.00000000	    -18.04773792	     85.89357390	  -2617.15538021	    139.99163255	    159.48533510	   1089.09458155	   -348.81668999	     12.55094197	    -20.12716966
      4.01000000	     40.72407360	      1.07875501	      0.38975539	    -38.55524748	    835.49547712	     -4.27352547	     -7.37946416	     39.67870714	     45.00000000	     44.54975558	     45.00000000	   1322.05396458	   -661.54533517	     17.81086792	   -179.99999979	   1809.94690180	   -133.75188258	     14.12444242	     13.68912640	      8.06562005	    -45.00000000	    -45.00000000	     45.00000000	    -17.59325977	     85.45823584	  -2617.65129618	    139.73479872	    160.23784395	   1088.74044189	   -347.89475313	     12.62480308	    -19.93453912
      4.02000000	     40.48580610	      1.28840063	      0.57447514	    -34.22018265	    831.42986290	     -3.74755307	     -6.94707408	     39.38734594	     45.00000000	     43.92827054	     45.00000000	   1322.40107279	   -661.63426799	     17.47392596	   -179.99999979	   1810.05504259	   -134.98238399	     13.71847741	     13.43473291	      8.00242309	    -45.00000000	    -45.00000000	     45.00000000	    -17.80317226	     84.85310510	  -2617.80575245	    139.73593297	    160.64136693	   1088.57537090	   -347.07905151	     12.57674755	    -19.78599093
      4.03000000	     40.24476650	      1.30073400	      0.59441933	    -30.01885372	    827.50083730	     -3.18494241	     -7.03466513	     39.02328700	     45.00000000	     43.30477170	     45.00000000	   1322.64001168	   -661.90190633	     17.36754095	   -179.99999979	   1810.11338366	   -136.08068621	     13.40435106	     13.18768216	      7.80320687	    -45.00000000	    -45.00000000	     45.00000000	    -17.65375084	     84.36015867	  -2618.05901267	    139.63975599	    161.19909313	   1088.26357160	   -346.26743675	     12.58202041	    -19.58706115
      4.04000000	     40.20261464	      1.46522189	      0.83310752	    -25.96390152	    823.75437864	     -2.57996137	     -6.38260144	     38.66675898	     45.00000000	     42.77014714	     45.00000000	   1323.35269623	   -661.75906934	     16.97207600	   -179.99999979	   1810.23820958	   -136.87420143	     13.19657826	     13.04002613	      7.84019694	    -45.00000000	    -45.00000000	     45.00000000	    -18.09234065	     84.06016353	  -2618.42088938	    139.38274295	    161.30275751	   1088.08077599	   -345.53854881	     12.56757024	    -19.43769747
      4.05000000	     39.83982129	      1.18539807	      0.52306680	    -22.06562539	    820.23658636	     -1.92556311	     -7.26256748	     38.22782925	     45.00000000	     42.13506978	     45.00000000	   1323.23113526	   -662.37738375	     17.13885539	   -179.99999979	   1810.25137294	   -137.59488480	     12.89173242	     12.68367874	      7.42923512	    -45.00000000	    -45.00000000	     45.00000000	    -17.31157909	     83.44953500	  -2618.63860967	    139.48443200	    162.01551153	   1087.70083832	   -344.74418488	     12.58162244	    -19.21821297
      4.06000000	     39.61119354	      1.29264696	      0.68083278	    -18.32771683	    816.98775571	     -1.21335695	     -6.82638571	     37.85403549	     45.00000000	     41.47346129	     45.00000000	   1323.92715387	   -662.20640899	     16.74369304	   -179.99999979	   1810.38623485	   -137.99878630	     12.67492771	     12.46311389	      7.35368230	    -45.00000000	    -45.00000000	     45.00000000	    -17.53078650	     82.98617557	  -2618.77267424	    139.43400691	    161.81492322	   1087.41664258	   -344.01211420	     12.55871607	    -19.06888650
      4.07000000	     39.35861343	      1.18603622	      0.61896489	    -14.75819449	    814.04163021	     -0.43918393	     -6.87439791	     37.55367516	     45.00000000	     40.90158119	     45.00000000	   1324.25505101	   -662.35410923	     16.57849107	   -179.99999979	   1810.38489961	   -138.17627124	     12.48715631	     12.19726605	      7.18297942	    -45.00000000	    -45.00000000	     45.00000000	    -17.32195742	     82.46682555	  -2618.92920541	    139.49093243	    162.13762572	   1087.15700084	   -343.28076381	     12.50222722	    -18.93719341
      4.08000000	     39.12210348	      1.05277890	      0.56532744	    -11.37549201	    811.42728255	      0.39358374	     -6.92153208	     37.17110291	     45.00000000	     40.33595245	     45.00000000	   1324.67574740	   -662.45426705	     16.40824302	   -179.99999979	   1810.44241454	   -138.03760571	     12.33331901	     11.97777657	      6.99911726	    -45.00000000	    -45.00000000	     45.00000000	    -17.14546573	     82.04633243	  -2619.05179565	    139.48570772	    162.03373033	   1086.93435020	   -342.41922817	     12.38247421	    -18.82736213
      4.09000000	     38.89999112	      0.84150157	      0.47229014	     -8.20489595	    809.16081096	      1.27296518	     -7.03615395	     36.90308112	     45.00000000	     39.83100711	     45.00000000	   1324.99523226	   -662.61577054	     16.27161870	   -179.99999979	   1810.36255474	   -137.53583949	     12.22260626	     11.74759296	      6.79499943	    -45.00000000	    -45.00000000	     45.00000000	    -16.83658164	     81.63316926	  -2619.19612366	    139.55860407	    162.00048271	   1086.76440351	   -341.43303667	     12.21022337	    -18.76366357
      4.10000000	     38.68950309	      0.69058917	      0.39303604	     -5.28876831	    807.25177099	      2.17479890	     -6.96683894	     36.68692871	     45.00000000	     39.31973695	     45.00000000	   1325.46899642	   -662.59692091	     16.10321711	   -179.99999979	   1810.35667473	   -136.62693950	     12.13297673	     11.58136346	      6.64486454	    -45.00000000	    -45.00000000	     45.00000000	    -16.62445098	     81.24737088	  -2619.26662796	    139.53576903	    161.78039871	   1086.60013607	   -340.33598348	     12.02876332	    -18.73360062
      4.11000000	     38.48673713	      0.47364308	      0.36796399	     -2.67169878	    805.69316031	      3.06691547	     -6.81899116	     36.60779943	     45.00000000	     38.85233960	     45.00000000	   1325.92842565	   -662.61151741	     15.93708425	   -179.99999979	   1810.26398301	   -135.28814452	     12.11078837	     11.48192490	      6.48058785	    -45.00000000	    -45.00000000	     45.00000000	    -16.37049446	     80.99252693	  -2619.31643466	    139.54885609	    161.54454839	   1086.53748682	   -339.14370348	     11.80487705	    -18.75599060
      4.12000000	     38.24103184	      0.46911986	      0.66590806	     -0.40099326	    804.46480874	      3.90989042	     -6.62260554	     36.38682699	     45.00000000	     38.21802152	     43.64377315	   1326.62045571	   -662.99329378	     16.00439986	   -179.99999979	   1809.83197322	   -133.85718021	     12.53627352	     11.76031837	      6.59298389	    -45.00000000	    -45.00000000	     45.00000000	    -16.54831409	     81.31000144	  -2619.38531376	    139.01929348	    161.12361096	   1086.28844202	   -338.05343943	     11.71221946	    -18.72574917
      4.13000000	     37.92555835	      0.46790055	      1.08505974	      1.48839697	    803.52906000	      4.66404868	     -7.04243392	     35.16180250	     45.00000000	     37.58816020	     42.82418887	   1327.12798678	   -663.24954164	     16.02200535	   -179.99999979	   1809.67987485	   -132.38635740	     12.30837775	     11.22497308	      6.60294005	    -45.00000000	    -45.00000000	     45.00000000	    -16.75876130	     80.86356046	  -2619.15407626	    139.61644013	    161.04514043	   1086.50916163	   -337.20799326	     11.32104962	    -18.70864698
      4.14000000	     37.94194557	      0.17712856	      0.65908226	      2.97696681	    802.83586454	      5.29389426	     -6.89828989	     35.52152364	     45.00000000	     37.58690826	     43.31114890	   1327.15952941	   -663.15651965	     15.84196892	   -179.99999979	   1809.43479483	   -130.44076261	     12.36014505	     11.19929403	      6.36155528	    -45.00000000	    -45.00000000	     45.00000000	    -16.25595110	     80.49819720	  -2619.26749126	    139.46295380	    160.87509774	   1086.34988569	   -336.18253583	     11.19585509	    -18.76988387
      4.15000000	     37.80131250	      0.03171241	      0.86605396	      4.05171942	    802.33161740	      5.76810699	     -7.09541442	     35.11486820	     45.00000000	     37.21389325	     43.20727526	   1327.58773718	   -663.10402832	     15.70070815	   -179.99999979	   1809.22234404	   -128.39497945	     12.29241153	     10.92429507	      6.27615706	    -45.00000000	    -45.00000000	     45.00000000	    -16.28081491	     80.32171012	  -2619.16619324	    139.75238803	    160.93905385	   1086.52112628	   -335.34813549	     10.95755321	    -18.88418015
